<?xml version="1.0" standalone="no"?>
<!DOCTYPE svg PUBLIC "-//W3C//DTD SVG 20010904//EN" "http://www.w3.org/TR/2001/REC-SVG-20010904/DTD/svg10.dtd">
<svg version="1.0" xmlns="http://www.w3.org/2000/svg"
    width="512.000000pt" height="512.000000pt" viewBox="0 0 512.000000 512.000000"
    preserveAspectRatio="xMidYMid meet">
    <metadata> Created by potrace 1.14, written by Peter Selinger 2001-2017 </metadata>
    <g transform="translate(0.000000,512.000000) scale(0.100000,-0.100000)"
        fill="#000000" stroke="none">
        <path
            d="M3263 4475 c-125 -34 -231 -123 -290 -242 -34 -68 -38 -85 -41 -172
-3 -79 0 -107 17 -159 27 -80 62 -136 119 -190 l45 -43 -61 -137 c-81 -181
-201 -444 -205 -448 -2 -2 -31 1 -65 7 -222 39 -455 -125 -502 -353 l-11 -58
-344 0 -344 0 -15 53 c-20 68 -81 162 -137 211 -24 21 -73 52 -109 70 -61 29
-72 30 -185 31 -114 0 -123 -2 -185 -31 -183 -87 -295 -291 -263 -479 46 -266
306 -439 558 -371 148 39 269 149 316 288 l18 53 355 3 355 2 20 -45 c11 -25
30 -59 41 -75 12 -17 18 -35 14 -42 -7 -11 -632 -916 -640 -927 -2 -2 -32 2
-68 10 -170 33 -358 -65 -434 -229 -24 -51 -27 -69 -27 -167 0 -101 2 -115 29
-170 38 -77 114 -153 191 -191 55 -27 69 -29 170 -29 104 0 114 2 176 32 81
40 150 111 190 197 66 140 43 295 -62 427 l-21 27 216 313 c120 173 263 379
319 459 l101 146 65 -24 c53 -19 82 -23 160 -21 l96 2 191 -323 192 -322 -50
-42 c-58 -47 -122 -147 -145 -225 -11 -40 -14 -80 -11 -146 4 -79 10 -102 41
-167 86 -179 275 -280 469 -252 302 44 475 365 344 640 -64 136 -191 231 -338
254 -37 6 -85 7 -107 4 l-39 -6 -196 328 -196 329 39 33 c47 39 103 121 123
181 l15 43 144 -1 c79 -1 186 -4 236 -7 83 -6 93 -9 99 -28 29 -99 116 -201
211 -249 196 -100 439 -14 539 188 27 55 29 69 29 170 0 101 -2 115 -29 170
-99 202 -342 287 -541 189 -89 -44 -170 -135 -199 -221 l-16 -49 -193 3 c-105
2 -211 6 -233 9 -39 5 -42 7 -48 42 -9 57 -63 159 -112 210 l-44 45 132 291
c72 160 134 294 137 298 3 3 31 2 61 -3 159 -25 344 65 431 210 49 81 69 151
69 239 0 294 -284 513 -567 437z m249 -192 c30 -17 69 -51 90 -78 140 -184 8
-446 -222 -444 -119 1 -200 50 -250 153 -30 60 -32 72 -28 138 3 40 12 88 22
105 37 72 103 127 186 154 50 17 146 3 202 -28z m-2249 -1433 c168 -85 204
-313 70 -446 -59 -59 -108 -79 -198 -79 -70 0 -87 4 -133 29 -94 53 -145 137
-146 246 -2 115 73 226 178 264 62 23 169 16 229 -14z m2864 -42 c148 -69 165
-294 30 -387 -54 -36 -77 -43 -143 -42 -187 2 -289 228 -168 370 76 88 175
109 281 59z m-535 -1392 c85 -56 129 -129 136 -227 4 -56 1 -75 -20 -121 -54
-117 -138 -172 -263 -172 -307 -1 -380 430 -92 541 19 8 65 11 114 10 70 -3
88 -7 125 -31z m-1902 -176 c140 -72 168 -263 53 -372 -40 -38 -94 -58 -157
-58 -131 0 -226 94 -226 223 0 66 15 108 55 155 65 78 182 100 275 52z" />
    </g>
</svg>