<?xml version="1.0" standalone="no"?>
<!DOCTYPE svg PUBLIC "-//W3C//DTD SVG 20010904//EN"
 "http://www.w3.org/TR/2001/REC-SVG-20010904/DTD/svg10.dtd">
<svg version="1.0" xmlns="http://www.w3.org/2000/svg"
 width="512.000000pt" height="512.000000pt" viewBox="0 0 512.000000 512.000000"
 preserveAspectRatio="xMidYMid meet">
<metadata>
Created by potrace 1.14, written by Peter Selinger 2001-2017
</metadata>
<g transform="translate(0.000000,512.000000) scale(0.100000,-0.100000)"
fill="#000000" stroke="none">
<path d="M3268 4475 c-252 -69 -399 -335 -318 -576 24 -71 86 -165 130 -198
32 -23 37 -40 20 -69 -6 -9 -64 -136 -129 -281 -66 -145 -122 -265 -124 -267
-2 -2 -30 1 -63 7 -44 8 -77 8 -129 -1 -189 -31 -337 -171 -375 -352 l-11 -58
-344 0 -343 0 -17 53 c-49 149 -158 257 -307 302 -199 60 -429 -40 -524 -227
-53 -104 -65 -206 -38 -311 43 -168 162 -289 327 -333 221 -59 467 73 537 288
l17 53 356 3 356 2 20 -45 c11 -25 30 -59 42 -76 25 -35 42 -2 -150 -279 -74
-107 -164 -238 -200 -290 -36 -52 -83 -121 -105 -152 -23 -31 -72 -101 -109
-156 l-68 -98 -61 15 c-110 26 -250 -14 -343 -100 -84 -78 -125 -173 -125
-295 0 -199 135 -357 337 -393 72 -13 172 3 243 39 153 78 250 279 210 435
-18 67 -42 118 -78 163 -19 23 -32 48 -29 55 2 7 123 183 268 392 145 209 281
405 302 435 68 99 56 92 123 65 50 -22 73 -25 159 -24 l100 2 130 -219 c72
-121 159 -266 193 -324 l62 -104 -32 -25 c-61 -46 -97 -91 -134 -166 -86 -174
-44 -390 102 -524 177 -164 451 -156 624 18 176 176 173 459 -6 636 -28 27
-76 63 -107 78 -70 35 -186 60 -242 52 -49 -8 -19 -49 -269 369 l-166 279 48
46 c57 54 95 112 113 169 7 23 17 43 23 43 29 3 291 -2 374 -7 74 -5 95 -10
98 -23 63 -208 268 -332 474 -285 367 83 423 584 85 750 -208 101 -474 -8
-548 -226 l-15 -45 -218 4 c-121 1 -225 6 -232 10 -8 4 -24 38 -36 74 -24 71
-83 165 -123 197 l-25 19 60 133 c213 470 209 463 228 460 54 -7 186 0 221 12
202 71 323 234 323 436 0 203 -142 382 -345 436 -62 17 -155 16 -217 -1z m237
-186 c135 -67 194 -244 126 -377 -105 -207 -403 -205 -506 3 -29 59 -28 194 2
251 30 56 106 121 162 139 64 20 157 13 216 -16z m-2273 -1425 c107 -36 184
-147 182 -264 -1 -109 -52 -193 -146 -246 -46 -25 -63 -29 -133 -29 -71 0 -86
3 -135 31 -178 100 -198 338 -39 466 71 57 179 74 271 42z m2896 -56 c165 -77
163 -328 -4 -409 -220 -106 -435 166 -278 350 76 88 175 109 282 59z m-563
-1377 c212 -96 219 -400 11 -509 -73 -38 -179 -38 -252 0 -204 107 -205 401
-2 502 66 33 180 36 243 7z m-1877 -188 c50 -24 108 -96 122 -153 24 -102 -27
-212 -121 -260 -45 -24 -143 -27 -192 -7 -83 35 -140 120 -139 210 0 173 173
283 330 210z"/>
</g>
</svg>
